# xmcd CD Database Entry
#
# Track frame offsets:
# 150
# 21874
# 39380
# 57215
# 72840
# 87921
# 103078
# 117585
# 134542
# 153120
# 165304
# 184581
#
# Disc length: 2748 seconds
#
# Revision: 2
# Processed by: cddbd v1.4b42PL1 Copyright (c) Steve Scherf et al.
# Submitted via: tcd 2.0b
#
DISCID=970aba0c
DTITLE=Chris Isaak/ Wicked Game
DYEAR=1900
DGENRE=
TTITLE0=Wicked Game
TTITLE1=You owe me some kind of love
TTITLE2=Blue spanish sky
TTITLE3=Heart shaped world
TTITLE4=Heart full of soul
TTITLE5=Funeral in the rain
TTITLE6=Blue hotel
TTITLE7=Dancin'
TTITLE8=Nothing's changed
TTITLE9=Voodoo
TTITLE10=Lie to me
TTITLE11=Wicked Game (instrumental)
EXTD=
EXTT0=
EXTT1=
EXTT2=
EXTT3=
EXTT4=
EXTT5=
EXTT6=
EXTT7=
EXTT8=
EXTT9=
EXTT10=
EXTT11=
PLAYORDER=
